<svg width="64" height="32" viewBox="0 0 251 32" fill="none" xmlns="http://www.w3.org/2000/svg">
<path d="M10.0805 26.4703C9.83782 26.295 9.65695 26.0476 9.56377 25.7636C9.4706 25.4796 9.46989 25.1735 9.56176 24.8891L9.85851 23.6648C9.9115 23.4495 10.0093 23.2478 10.1455 23.0727C10.2817 22.8976 10.4532 22.753 10.6491 22.6483L11.6232 22.1378C12.2241 21.8263 12.7039 21.3242 12.9869 20.7107C13.2699 20.0971 13.3401 19.4071 13.1862 18.7495L13.1726 18.6885C12.9923 17.952 12.5429 17.3091 11.9124 16.8855C11.2819 16.4619 10.5156 16.288 9.76337 16.398L8.67376 16.5538C8.45224 16.5855 8.22649 16.5701 8.01136 16.5086C7.79623 16.4471 7.5966 16.3409 7.42559 16.1969L6.46284 15.3815C6.22389 15.2032 6.04646 14.9552 5.95513 14.6719C5.86381 14.3886 5.86312 14.084 5.95315 13.8003C6.15813 13.1717 6.15226 12.4936 5.93642 11.8687C5.72059 11.2437 5.30654 10.7058 4.75688 10.3364C4.20723 9.9669 3.55187 9.78597 2.88993 9.82094C2.228 9.85591 1.59548 10.1049 1.08805 10.5302C0.580613 10.9555 0.225866 11.534 0.0774596 12.1782C-0.0709472 12.8224 -0.00494235 13.4972 0.265491 14.1007C0.535925 14.7042 0.996078 15.2035 1.57635 15.523C2.15663 15.8425 2.82547 15.9649 3.48171 15.8717V15.8717C3.58818 15.8558 3.69238 15.8333 3.79659 15.8084L4.07975 15.7542C4.31493 15.7078 4.55759 15.7153 4.78947 15.7759C5.02136 15.8366 5.23644 15.9488 5.41854 16.1043L6.72788 17.2338C6.92799 17.4085 7.0808 17.6306 7.17225 17.8797C7.26369 18.1288 7.29083 18.3968 7.25116 18.6591L7.21945 18.8579L7.19226 19.0318V19.0476C7.1497 19.4102 7.17272 19.7774 7.26022 20.1319C7.26022 20.1522 7.26022 20.1725 7.27608 20.1906V20.2132C7.40164 20.6939 7.64443 21.1362 7.98285 21.5008V21.5008C8.02362 21.5437 8.0644 21.5843 8.10744 21.625L8.25015 21.7673C8.43856 21.9578 8.57542 22.1928 8.64792 22.4504C8.72042 22.708 8.7262 22.9797 8.6647 23.2401L8.26601 24.9139C8.2112 25.1466 8.10369 25.3636 7.95173 25.5484C7.79977 25.7332 7.60739 25.8809 7.38934 25.9801L7.14469 26.093C7.04483 26.1319 6.94726 26.1764 6.85247 26.2263V26.2263C6.40686 26.4608 6.02692 26.8024 5.747 27.2202C5.28439 27.8816 5.10422 28.6992 5.24611 29.493C5.388 30.2869 5.84034 30.992 6.50361 31.4533C7.16689 31.9146 7.98677 32.0943 8.78289 31.9528C9.57901 31.8113 10.2862 31.3603 10.7488 30.6989C11.0225 30.3246 11.2062 29.8926 11.2856 29.4362C11.3064 29.3332 11.3208 29.2291 11.3287 29.1244L11.3604 28.8579C11.3423 28.3893 11.2177 27.9308 10.996 27.5172C10.7742 27.1036 10.4612 26.7456 10.0805 26.4703V26.4703Z" fill="#EDEDED"/>
<path d="M33.3775 11.9253C33.2169 11.4348 32.934 10.9932 32.5553 10.6417C32.1766 10.2902 31.7145 10.0404 31.2125 9.91573C30.7105 9.79109 30.1849 9.79568 29.6851 9.92907C29.1854 10.0625 28.7278 10.3203 28.3553 10.6784V10.6784C28.2759 10.7496 28.2003 10.825 28.1288 10.9042L27.9453 11.103C27.7829 11.2784 27.5828 11.4148 27.3599 11.5021C27.1371 11.5893 26.8973 11.6251 26.6586 11.6068L24.937 11.4667C24.6693 11.4446 24.4117 11.3551 24.1882 11.2065C23.9647 11.058 23.7828 10.8552 23.6594 10.6174L23.5688 10.4389C23.5416 10.3847 23.5167 10.3328 23.4872 10.2831V10.2672C23.3084 9.94809 23.0727 9.6641 22.7918 9.4292L22.7465 9.39306L22.7261 9.37499C22.3406 9.06146 21.8841 8.84666 21.3964 8.74929H21.3782L21.2038 8.71992L21.0022 8.70411C20.7374 8.66089 20.488 8.55139 20.2772 8.38586C20.0664 8.22033 19.9012 8.00418 19.7971 7.75764L19.1311 6.17643C19.0393 5.95555 18.999 5.7168 19.0131 5.47814C19.0272 5.23947 19.0954 5.00711 19.2126 4.79852L19.3463 4.57263C19.4036 4.48228 19.4558 4.38967 19.5026 4.29479C19.7077 3.87955 19.8139 3.42269 19.8129 2.9598C19.7913 2.16748 19.4604 1.41485 18.8907 0.862074C18.3211 0.309296 17.5576 0 16.7627 0C15.9678 0 15.2043 0.309296 14.6347 0.862074C14.065 1.41485 13.7341 2.16748 13.7125 2.9598C13.7115 3.42269 13.8177 3.87955 14.0228 4.29479V4.29479C14.0711 4.38967 14.1233 4.48228 14.1791 4.57263L14.3128 4.79852C14.43 5.00711 14.4982 5.23947 14.5123 5.47814C14.5264 5.7168 14.4861 5.95555 14.3943 6.17643L13.7283 7.75764C13.625 8.00303 13.4611 8.21843 13.2521 8.38388C13.043 8.54933 12.7954 8.65948 12.5323 8.70411L12.3352 8.73573L12.1585 8.7651H12.1426C11.7824 8.83582 11.4384 8.97212 11.1278 9.16718L11.0825 9.19654C11.0734 9.20045 11.065 9.20579 11.0576 9.21235C10.6374 9.48101 10.291 9.84976 10.0495 10.2853V10.3011C10.0223 10.3508 9.99513 10.405 9.97021 10.457C8.73336 13.1044 11.4404 14.5727 11.7824 14.663C12.2003 14.7889 12.6395 14.8282 13.0731 14.7785C13.5067 14.7287 13.9255 14.591 14.3037 14.3739L14.3604 14.3377C15.0058 13.9384 15.4781 13.3127 15.6843 12.5837C15.8906 11.8547 15.8158 11.0751 15.4749 10.3983V10.3983L14.981 9.40436C14.8823 9.20403 14.8272 8.98512 14.8194 8.76203C14.8116 8.53894 14.8512 8.31673 14.9357 8.11002L15.4069 6.94445C15.5022 6.66272 15.6838 6.4179 15.926 6.24448C16.1682 6.07106 16.4589 5.97779 16.757 5.97779C17.0552 5.97779 17.3459 6.07106 17.5881 6.24448C17.8303 6.4179 18.0118 6.66272 18.1071 6.94445L18.5874 8.11002C18.6722 8.31658 18.7123 8.5387 18.7049 8.76179C18.6974 8.98487 18.6427 9.20386 18.5443 9.40436L18.0573 10.3892C17.7538 10.9951 17.6625 11.6849 17.798 12.3486C17.9335 13.0122 18.288 13.6115 18.8049 14.0509L18.8524 14.0938C19.2483 14.4265 19.7228 14.6531 20.231 14.7519C20.7392 14.8507 21.2643 14.8186 21.7565 14.6585C22.208 14.5149 22.6187 14.2664 22.9549 13.9334L23.7455 13.1676C23.9048 13.0097 24.0962 12.8877 24.3068 12.8097C24.5175 12.7318 24.7424 12.6998 24.9665 12.7159L26.226 12.8107C26.524 12.8146 26.8134 12.9109 27.0541 13.0861C27.2948 13.2614 27.4748 13.507 27.5693 13.7888C27.7618 14.3806 28.2489 15.5169 30.0317 15.8579C30.5442 15.9302 31.0667 15.8713 31.55 15.6867C32.0334 15.5022 32.4618 15.198 32.7948 14.8029C33.1278 14.4078 33.3546 13.9347 33.4537 13.4281C33.5529 12.9216 33.5212 12.3982 33.3616 11.9072L33.3775 11.9253Z" fill="#EC1D35"/>
<path d="M22.3675 16.5154C21.9544 16.6573 21.5751 16.8829 21.2535 17.1779C20.9319 17.473 20.6749 17.8311 20.4986 18.2299C20.4986 18.2502 20.4805 18.2705 20.4737 18.2908C20.1899 18.9927 20.1783 19.7749 20.4413 20.4848C20.7043 21.1948 21.223 21.7816 21.8963 22.1309V22.1309L22.8727 22.6414C23.0703 22.7459 23.2435 22.8909 23.3809 23.0669C23.5183 23.2428 23.6169 23.4458 23.6701 23.6624L23.9691 24.8867C24.0605 25.1708 24.0597 25.4763 23.9667 25.7599C23.8737 26.0434 23.6933 26.2904 23.4513 26.4657C23.2092 26.6409 22.9178 26.7355 22.6187 26.7359C22.3195 26.7363 22.0279 26.6426 21.7853 26.468L20.7093 25.8084C20.5185 25.6923 20.3545 25.5373 20.228 25.3535C20.1015 25.1698 20.0154 24.9614 19.9754 24.7422L19.7896 23.6602C19.6793 22.9923 19.3482 22.3803 18.8492 21.9216C18.3501 21.4628 17.7115 21.1834 17.035 21.128H16.9693C16.2113 21.0733 15.4601 21.3028 14.8629 21.7717C14.2658 22.2405 13.8658 22.9148 13.7413 23.6624V23.6624C13.3109 26.2375 15.6328 27.0756 16.5321 27.1908H16.6159C17.1129 27.2191 17.6092 27.1253 18.0612 26.9175H18.077L18.2356 26.8384L18.4146 26.7481C18.6543 26.6276 18.9207 26.5698 19.189 26.5801C19.4572 26.5904 19.7184 26.6684 19.9482 26.8068L21.4229 27.7103C21.6277 27.8343 21.8014 28.0034 21.9306 28.2047C22.0598 28.4059 22.141 28.634 22.1682 28.8714L22.1999 29.1379C22.207 29.2447 22.2198 29.351 22.2384 29.4564V29.4564C22.327 29.9656 22.5442 30.4438 22.8694 30.846C23.1947 31.2483 23.6174 31.5613 24.0975 31.7556C24.5777 31.9499 25.0996 32.019 25.614 31.9565C26.1284 31.894 26.6183 31.7019 27.0376 31.3983C27.457 31.0947 27.7918 30.6896 28.0107 30.2212C28.2295 29.7528 28.3251 29.2365 28.2885 28.7211C28.2519 28.2057 28.0842 27.708 27.8013 27.2751C27.5184 26.8422 27.1296 26.4882 26.6716 26.2466V26.2466C26.5764 26.1969 26.479 26.154 26.3793 26.1133L26.1347 26.0004C25.9169 25.9014 25.7247 25.7541 25.5727 25.5697C25.4208 25.3853 25.3131 25.1687 25.258 24.9364L24.8593 23.2604C24.7978 22.9999 24.8036 22.7282 24.8761 22.4707C24.9486 22.2131 25.0855 21.978 25.2739 21.7876L25.4166 21.6453C25.4596 21.6046 25.5004 21.5639 25.5412 21.521V21.5075C25.7907 21.2401 25.9888 20.9292 26.1256 20.5904L26.146 20.5384V20.5136C26.326 20.051 26.3897 19.5516 26.3318 19.0589V19.0408C25.9286 16.0975 23.0199 16.2737 22.3675 16.5154Z" fill="#402FFF"/>
<path d="M47.9405 30.4683V28.0671H44.9956C44.3246 28.0522 43.6689 27.8639 43.0928 27.5204C42.4585 27.1477 41.3349 25.9121 40.9883 25.4219C40.6469 24.8915 40.4762 24.2696 40.499 23.6397V14.9837C40.4731 14.3456 40.6438 13.7149 40.9883 13.1766C41.3349 12.7248 42.4585 11.4802 43.0928 11.1052C43.6695 10.7635 44.325 10.576 44.9956 10.5608H47.9405V8.22968H51.1414V10.5563H54.016C54.6862 10.5751 55.3407 10.7623 55.9189 11.1007C56.5532 11.4757 57.6496 12.7113 58.0256 13.1721C58.369 13.7109 58.5397 14.3412 58.5149 14.9792V23.6352C58.5368 24.265 58.3661 24.8865 58.0256 25.4174C57.6496 25.9076 56.5532 27.1432 55.9189 27.5159C55.3413 27.856 54.6865 28.0441 54.016 28.0626H51.1414V30.4637L47.9405 30.4683ZM45.0659 24.7036H47.9405V13.9198H45.0953C44.6895 14.232 44.3303 14.6001 44.0284 15.0131V23.6397C44.3218 24.0417 44.6711 24.3999 45.0659 24.7036ZM54.9969 14.9905C54.7198 14.5751 54.3681 14.2144 53.9594 13.9265H51.1414V24.7104H53.93C54.3214 24.3933 54.6789 24.0368 54.9969 23.6465V14.9905Z" fill="#EDEDED"/>
<path d="M73.7621 15.7316C73.4464 14.9895 72.9135 14.3597 72.233 13.9245H67.1089C66.6753 14.2485 66.2934 14.6361 65.9763 15.0743V23.6444C66.267 24.081 66.6545 24.445 67.1089 24.7083H72.2897C72.9105 24.2573 73.4151 23.6659 73.7621 22.9826L77.049 23.789C76.8107 24.445 76.4805 25.064 76.0682 25.6277C75.375 26.6058 74.0294 28.0718 72.2625 28.0718H66.964C66.2935 28.053 65.6388 27.8649 65.0611 27.5252C64.4563 27.1524 63.3599 26.0027 62.9566 25.456C62.6312 24.9185 62.4611 24.3017 62.4651 23.6738V14.9545C62.4392 14.3239 62.611 13.701 62.9566 13.1723C63.301 12.7205 64.4268 11.5052 65.0906 11.1009C65.6621 10.772 66.3047 10.5853 66.964 10.5565H72.2647C74.0226 10.5565 75.3501 12.0225 76.041 12.9713C76.4503 13.5344 76.7804 14.1507 77.0219 14.8032L73.7621 15.7316Z" fill="#EDEDED"/>
<path d="M91.3432 27.9248V14.035H84.0557V27.9248H80.5377V11.6406C80.5389 11.3863 80.6407 11.1428 80.821 10.9631C81.0013 10.7833 81.2455 10.6818 81.5005 10.6806H93.8984C94.1534 10.6818 94.3976 10.7833 94.5779 10.9631C94.7582 11.1428 94.86 11.3863 94.8612 11.6406V27.9361L91.3432 27.9248Z" fill="#EDEDED"/>
<path d="M105.81 18.989V17.0485C105.12 17.0485 104.577 16.8544 104.182 16.4663C103.786 16.071 103.589 15.5355 103.589 14.8599V13.2967C103.589 12.6211 103.786 12.0892 104.182 11.7011C104.584 11.313 105.127 11.1189 105.81 11.1189V9.17837H106.802V11.1189C107.492 11.1189 108.034 11.313 108.429 11.7011C108.825 12.0892 109.022 12.6211 109.022 13.2967V14.8599C109.022 15.5355 108.825 16.071 108.429 16.4663C108.034 16.8544 107.492 17.0485 106.802 17.0485V18.989H105.81ZM105.842 16.1321V12.0353C105.468 12.0353 105.174 12.1467 104.958 12.3695C104.742 12.5852 104.635 12.8942 104.635 13.2967V14.8599C104.635 15.2552 104.742 15.5679 104.958 15.7979C105.174 16.0207 105.468 16.1321 105.842 16.1321ZM106.769 16.1321C107.15 16.1321 107.445 16.0207 107.653 15.7979C107.869 15.5679 107.977 15.2552 107.977 14.8599V13.2967C107.977 12.8942 107.869 12.5852 107.653 12.3695C107.445 12.1467 107.15 12.0353 106.769 12.0353V16.1321Z" fill="#EDEDED"/>
<path d="M112.77 17.1563C112.288 17.1563 111.864 17.0628 111.498 16.876C111.138 16.6819 110.862 16.4124 110.668 16.0674C110.474 15.7224 110.377 15.3199 110.377 14.8599V13.3075C110.377 12.8403 110.474 12.4378 110.668 12.1C110.862 11.755 111.138 11.4891 111.498 11.3022C111.864 11.1082 112.288 11.0111 112.77 11.0111C113.259 11.0111 113.683 11.1082 114.042 11.3022C114.402 11.4891 114.678 11.755 114.872 12.1C115.066 12.4378 115.163 12.8403 115.163 13.3075V14.364H111.498V14.8599C111.498 15.2984 111.606 15.6326 111.821 15.8626C112.044 16.0926 112.364 16.2076 112.781 16.2076C113.119 16.2076 113.392 16.1501 113.6 16.0351C113.809 15.9129 113.938 15.7368 113.988 15.5068H115.142C115.056 16.0099 114.797 16.4124 114.366 16.7143C113.934 17.0089 113.402 17.1563 112.77 17.1563ZM114.042 13.6633V13.2967C114.042 12.8655 113.934 12.5312 113.719 12.2941C113.503 12.0569 113.187 11.9383 112.77 11.9383C112.36 11.9383 112.044 12.0569 111.821 12.2941C111.606 12.5312 111.498 12.8691 111.498 13.3075V13.577L114.128 13.5662L114.042 13.6633Z" fill="#EDEDED"/>
<path d="M116.302 18.5578V16.0566H116.733C116.855 15.9344 116.981 15.7044 117.111 15.3666C117.247 15.0217 117.319 14.5868 117.326 14.0621L117.391 11.1189H121.412V16.0566H122.134V18.5578H121.078V17.0485H117.358V18.5578H116.302ZM117.941 16.0566H120.28V12.1431H118.48L118.437 14.0729C118.429 14.5976 118.368 15.0324 118.253 15.3774C118.145 15.7152 118.041 15.9416 117.941 16.0566Z" fill="#EDEDED"/>
<path d="M125.699 17.1563C125.217 17.1563 124.793 17.0628 124.427 16.876C124.067 16.6819 123.79 16.4124 123.596 16.0674C123.402 15.7224 123.305 15.3199 123.305 14.8599V13.3075C123.305 12.8403 123.402 12.4378 123.596 12.1C123.79 11.755 124.067 11.4891 124.427 11.3022C124.793 11.1082 125.217 11.0111 125.699 11.0111C126.187 11.0111 126.612 11.1082 126.971 11.3022C127.33 11.4891 127.607 11.755 127.801 12.1C127.995 12.4378 128.092 12.8403 128.092 13.3075V14.364H124.427V14.8599C124.427 15.2984 124.534 15.6326 124.75 15.8626C124.973 16.0926 125.293 16.2076 125.71 16.2076C126.047 16.2076 126.32 16.1501 126.529 16.0351C126.737 15.9129 126.867 15.7368 126.917 15.5068H128.071C127.984 16.0099 127.726 16.4124 127.294 16.7143C126.863 17.0089 126.331 17.1563 125.699 17.1563ZM126.971 13.6633V13.2967C126.971 12.8655 126.863 12.5312 126.647 12.2941C126.432 12.0569 126.116 11.9383 125.699 11.9383C125.289 11.9383 124.973 12.0569 124.75 12.2941C124.534 12.5312 124.427 12.8691 124.427 13.3075V13.577L127.057 13.5662L126.971 13.6633Z" fill="#EDEDED"/>
<path d="M129.834 18.989V11.1189H130.988V12.2509H131.236L130.988 12.5205C130.988 12.0533 131.132 11.6867 131.419 11.4208C131.714 11.1477 132.106 11.0111 132.594 11.0111C133.191 11.0111 133.665 11.2124 134.017 11.6149C134.377 12.0102 134.556 12.5528 134.556 13.2428V14.9138C134.556 15.3738 134.474 15.7727 134.309 16.1105C134.15 16.4411 133.924 16.6999 133.629 16.8868C133.342 17.0664 132.997 17.1563 132.594 17.1563C132.113 17.1563 131.725 17.0233 131.43 16.7574C131.135 16.4843 130.988 16.1141 130.988 15.6469L131.236 15.9165H130.966L130.999 17.2964V18.989H129.834ZM132.195 16.1429C132.576 16.1429 132.871 16.0351 133.079 15.8194C133.295 15.5966 133.403 15.2768 133.403 14.8599V13.3075C133.403 12.8906 133.295 12.5744 133.079 12.3588C132.871 12.1359 132.576 12.0245 132.195 12.0245C131.829 12.0245 131.538 12.1395 131.322 12.3695C131.107 12.5923 130.999 12.905 130.999 13.3075V14.8599C130.999 15.2624 131.107 15.5787 131.322 15.8087C131.538 16.0315 131.829 16.1429 132.195 16.1429Z" fill="#EDEDED"/>
<path d="M138.035 17.1563C137.416 17.1563 136.928 16.9982 136.568 16.6819C136.216 16.3585 136.04 15.9201 136.04 15.3666C136.04 14.806 136.227 14.3676 136.601 14.0514C136.982 13.7279 137.503 13.5662 138.164 13.5662H139.813V13.0164C139.813 12.693 139.713 12.4414 139.512 12.2617C139.31 12.082 139.026 11.9922 138.66 11.9922C138.336 11.9922 138.067 12.0641 137.851 12.2078C137.636 12.3444 137.51 12.5277 137.474 12.7576H136.331C136.396 12.2258 136.64 11.8017 137.064 11.4855C137.495 11.1693 138.038 11.0111 138.692 11.0111C139.397 11.0111 139.954 11.1908 140.363 11.5502C140.773 11.9024 140.978 12.3839 140.978 12.9948V17.0485H139.846V15.9596H139.652L139.846 15.744C139.846 16.1752 139.68 16.5202 139.35 16.779C139.019 17.0305 138.581 17.1563 138.035 17.1563ZM138.379 16.2615C138.796 16.2615 139.138 16.1572 139.404 15.9488C139.677 15.7332 139.813 15.4601 139.813 15.1295V14.3532H138.185C137.884 14.3532 137.643 14.4359 137.463 14.6012C137.291 14.7665 137.204 14.9929 137.204 15.2804C137.204 15.5823 137.309 15.823 137.517 16.0027C137.725 16.1752 138.013 16.2615 138.379 16.2615Z" fill="#EDEDED"/>
<path d="M146.935 18.5578V17.0485H142.785V11.1189H143.949V15.9919H146.019V11.1189H147.183V15.9919H147.992V18.5578H146.935Z" fill="#EDEDED"/>
<path d="M149.249 17.0485V11.1189H150.316V14.1915C150.316 14.3928 150.309 14.6156 150.295 14.8599C150.28 15.0971 150.262 15.3307 150.241 15.5607C150.219 15.7835 150.198 15.9776 150.176 16.1429L152.408 11.1189H153.863V17.0485H152.796V13.9759C152.796 13.7747 152.803 13.559 152.818 13.329C152.832 13.0919 152.85 12.8619 152.871 12.6391C152.893 12.4163 152.915 12.233 152.936 12.0892L150.705 17.0485H149.249Z" fill="#EDEDED"/>
<path d="M155.401 17.0485L156.856 14.8276C156.425 14.7054 156.087 14.4898 155.843 14.1807C155.606 13.8717 155.487 13.4943 155.487 13.0487C155.487 12.445 155.688 11.9742 156.091 11.6364C156.493 11.2914 157.043 11.1189 157.74 11.1189H160.328V17.0485H159.174V14.9354H158.042L156.738 17.0485H155.401ZM157.773 13.9651H159.174V12.1108H157.773C157.428 12.1108 157.155 12.1934 156.953 12.3588C156.759 12.5169 156.662 12.7433 156.662 13.038C156.662 13.3326 156.759 13.5626 156.953 13.7279C157.155 13.8861 157.428 13.9651 157.773 13.9651Z" fill="#EDEDED"/>
<path d="M170.982 17.1563C170.493 17.1563 170.062 17.0664 169.688 16.8868C169.321 16.6999 169.037 16.434 168.836 16.089C168.642 15.7368 168.545 15.3271 168.545 14.8599V13.3075C168.545 12.8331 168.642 12.4234 168.836 12.0784C169.037 11.7335 169.321 11.4711 169.688 11.2914C170.062 11.1046 170.493 11.0111 170.982 11.0111C171.693 11.0111 172.265 11.198 172.696 11.5717C173.127 11.9455 173.353 12.4558 173.375 13.1026H172.211C172.189 12.7648 172.071 12.5025 171.855 12.3156C171.639 12.1288 171.348 12.0353 170.982 12.0353C170.586 12.0353 170.274 12.1467 170.044 12.3695C169.814 12.5852 169.699 12.8942 169.699 13.2967V14.8599C169.699 15.2624 169.814 15.5751 170.044 15.7979C170.274 16.0207 170.586 16.1321 170.982 16.1321C171.348 16.1321 171.639 16.0387 171.855 15.8518C172.071 15.6649 172.189 15.4026 172.211 15.0648H173.375C173.353 15.7116 173.127 16.2219 172.696 16.5957C172.265 16.9694 171.693 17.1563 170.982 17.1563Z" fill="#EDEDED"/>
<path d="M175.107 17.0485V11.1189H179.721V17.0485H178.556V12.1863H176.271V17.0485H175.107Z" fill="#EDEDED"/>
<path d="M183.878 17.1455C183.389 17.1455 182.965 17.0521 182.606 16.8652C182.247 16.6783 181.97 16.4124 181.776 16.0674C181.582 15.7224 181.485 15.3163 181.485 14.8492V13.3183C181.485 12.8439 181.582 12.4378 181.776 12.1C181.97 11.755 182.247 11.4891 182.606 11.3022C182.965 11.1153 183.389 11.0219 183.878 11.0219C184.367 11.0219 184.791 11.1153 185.15 11.3022C185.51 11.4891 185.786 11.755 185.98 12.1C186.174 12.4378 186.271 12.8439 186.271 13.3183V14.8492C186.271 15.3163 186.174 15.7224 185.98 16.0674C185.786 16.4124 185.51 16.6783 185.15 16.8652C184.791 17.0521 184.367 17.1455 183.878 17.1455ZM183.878 16.1213C184.273 16.1213 184.579 16.0135 184.794 15.7979C185.01 15.5751 185.118 15.2588 185.118 14.8492V13.3183C185.118 12.9014 185.01 12.5852 184.794 12.3695C184.579 12.1539 184.273 12.0461 183.878 12.0461C183.49 12.0461 183.184 12.1539 182.962 12.3695C182.746 12.5852 182.638 12.9014 182.638 13.3183V14.8492C182.638 15.2588 182.746 15.5751 182.962 15.7979C183.184 16.0135 183.49 16.1213 183.878 16.1213Z" fill="#EDEDED"/>
<path d="M188.014 18.989V11.1189H189.167V12.2509H189.415L189.167 12.5205C189.167 12.0533 189.311 11.6867 189.599 11.4208C189.893 11.1477 190.285 11.0111 190.774 11.0111C191.37 11.0111 191.845 11.2124 192.197 11.6149C192.556 12.0102 192.736 12.5528 192.736 13.2428V14.9138C192.736 15.3738 192.653 15.7727 192.488 16.1105C192.33 16.4411 192.103 16.6999 191.809 16.8868C191.521 17.0664 191.176 17.1563 190.774 17.1563C190.292 17.1563 189.904 17.0233 189.609 16.7574C189.315 16.4843 189.167 16.1141 189.167 15.6469L189.415 15.9165H189.146L189.178 17.2964V18.989H188.014ZM190.375 16.1429C190.756 16.1429 191.05 16.0351 191.259 15.8194C191.474 15.5966 191.582 15.2768 191.582 14.8599V13.3075C191.582 12.8906 191.474 12.5744 191.259 12.3588C191.05 12.1359 190.756 12.0245 190.375 12.0245C190.008 12.0245 189.717 12.1395 189.502 12.3695C189.286 12.5923 189.178 12.905 189.178 13.3075V14.8599C189.178 15.2624 189.286 15.5787 189.502 15.8087C189.717 16.0315 190.008 16.1429 190.375 16.1429Z" fill="#EDEDED"/>
<path d="M196.225 17.0485V12.1647H194.133V11.1189H199.48V12.1647H197.389V17.0485H196.225Z" fill="#EDEDED"/>
<path d="M200.964 17.0485V11.1189H202.031V14.1915C202.031 14.3928 202.024 14.6156 202.01 14.8599C201.995 15.0971 201.977 15.3307 201.956 15.5607C201.934 15.7835 201.913 15.9776 201.891 16.1429L204.123 11.1189H205.578V17.0485H204.511V13.9759C204.511 13.7747 204.518 13.559 204.533 13.329C204.547 13.0919 204.565 12.8619 204.586 12.6391C204.608 12.4163 204.63 12.233 204.651 12.0892L202.419 17.0485H200.964Z" fill="#EDEDED"/>
<path d="M207.418 17.0485V11.1189H210.027C210.673 11.1189 211.18 11.2591 211.547 11.5394C211.913 11.8197 212.097 12.2078 212.097 12.7037C212.097 13.1134 211.949 13.4404 211.655 13.6848C211.36 13.9292 210.972 14.0514 210.49 14.0514V13.9543C211.015 13.9543 211.435 14.0837 211.752 14.3425C212.075 14.594 212.237 14.9318 212.237 15.3559C212.237 15.8877 212.046 16.3046 211.665 16.6065C211.284 16.9011 210.76 17.0485 210.091 17.0485H207.418ZM208.56 16.1105H210.07C210.386 16.1105 210.634 16.0387 210.814 15.8949C211.001 15.7512 211.094 15.5535 211.094 15.302C211.094 15.0432 211.001 14.842 210.814 14.6982C210.634 14.5473 210.386 14.4718 210.07 14.4718H208.56V16.1105ZM208.56 13.6093H210.027C210.314 13.6093 210.541 13.5411 210.706 13.4045C210.871 13.2679 210.954 13.0775 210.954 12.8331C210.954 12.5959 210.871 12.4091 210.706 12.2725C210.541 12.1288 210.314 12.0569 210.027 12.0569H208.56V13.6093Z" fill="#EDEDED"/>
<path d="M213.893 17.0485V11.1189H215.057V13.5015H217.343V11.1189H218.507V17.0485H217.343V14.5689H215.057V17.0485H213.893Z" fill="#EDEDED"/>
<path d="M222.664 17.1455C222.176 17.1455 221.751 17.0521 221.392 16.8652C221.033 16.6783 220.756 16.4124 220.562 16.0674C220.368 15.7224 220.271 15.3163 220.271 14.8492V13.3183C220.271 12.8439 220.368 12.4378 220.562 12.1C220.756 11.755 221.033 11.4891 221.392 11.3022C221.751 11.1153 222.176 11.0219 222.664 11.0219C223.153 11.0219 223.577 11.1153 223.936 11.3022C224.296 11.4891 224.573 11.755 224.767 12.1C224.961 12.4378 225.058 12.8439 225.058 13.3183V14.8492C225.058 15.3163 224.961 15.7224 224.767 16.0674C224.573 16.4124 224.296 16.6783 223.936 16.8652C223.577 17.0521 223.153 17.1455 222.664 17.1455ZM222.664 16.1213C223.06 16.1213 223.365 16.0135 223.581 15.7979C223.796 15.5751 223.904 15.2588 223.904 14.8492V13.3183C223.904 12.9014 223.796 12.5852 223.581 12.3695C223.365 12.1539 223.06 12.0461 222.664 12.0461C222.276 12.0461 221.971 12.1539 221.748 12.3695C221.532 12.5852 221.424 12.9014 221.424 13.3183V14.8492C221.424 15.2588 221.532 15.5751 221.748 15.7979C221.971 16.0135 222.276 16.1213 222.664 16.1213Z" fill="#EDEDED"/>
<path d="M227.253 17.0485V11.1189H231.587V12.1863H228.406V17.0485H227.253Z" fill="#EDEDED"/>
<path d="M235.593 17.1455C235.104 17.1455 234.68 17.0521 234.321 16.8652C233.962 16.6783 233.685 16.4124 233.491 16.0674C233.297 15.7224 233.2 15.3163 233.2 14.8492V13.3183C233.2 12.8439 233.297 12.4378 233.491 12.1C233.685 11.755 233.962 11.4891 234.321 11.3022C234.68 11.1153 235.104 11.0219 235.593 11.0219C236.082 11.0219 236.506 11.1153 236.865 11.3022C237.225 11.4891 237.501 11.755 237.695 12.1C237.889 12.4378 237.986 12.8439 237.986 13.3183V14.8492C237.986 15.3163 237.889 15.7224 237.695 16.0674C237.501 16.4124 237.225 16.6783 236.865 16.8652C236.506 17.0521 236.082 17.1455 235.593 17.1455ZM235.593 16.1213C235.988 16.1213 236.294 16.0135 236.509 15.7979C236.725 15.5751 236.833 15.2588 236.833 14.8492V13.3183C236.833 12.9014 236.725 12.5852 236.509 12.3695C236.294 12.1539 235.988 12.0461 235.593 12.0461C235.205 12.0461 234.899 12.1539 234.677 12.3695C234.461 12.5852 234.353 12.9014 234.353 13.3183V14.8492C234.353 15.2588 234.461 15.5751 234.677 15.7979C234.899 16.0135 235.205 16.1213 235.593 16.1213Z" fill="#EDEDED"/>
<path d="M103.998 28.8821V22.9525H108.613V28.8821H107.448V24.0199H105.163V28.8821H103.998Z" fill="#EDEDED"/>
<path d="M110.441 30.8227V22.9525H111.595V24.0845H111.843L111.595 24.3541C111.595 23.8869 111.739 23.5203 112.026 23.2544C112.321 22.9813 112.712 22.8447 113.201 22.8447C113.798 22.8447 114.272 23.046 114.624 23.4485C114.984 23.8438 115.163 24.3864 115.163 25.0764V26.7474C115.163 27.2074 115.081 27.6063 114.915 27.9441C114.757 28.2747 114.531 28.5335 114.236 28.7204C113.949 28.9 113.604 28.9899 113.201 28.9899C112.72 28.9899 112.332 28.8569 112.037 28.591C111.742 28.3179 111.595 27.9477 111.595 27.4806L111.843 27.7501H111.573L111.606 29.13V30.8227H110.441ZM112.802 27.9765C113.183 27.9765 113.478 27.8687 113.686 27.653C113.902 27.4302 114.01 27.1104 114.01 26.6935V25.1411C114.01 24.7242 113.902 24.408 113.686 24.1924C113.478 23.9695 113.183 23.8581 112.802 23.8581C112.436 23.8581 112.145 23.9731 111.929 24.2031C111.713 24.4259 111.606 24.7386 111.606 25.1411V26.6935C111.606 27.096 111.713 27.4123 111.929 27.6423C112.145 27.8651 112.436 27.9765 112.802 27.9765Z" fill="#EDEDED"/>
<path d="M119.234 28.9791C118.746 28.9791 118.322 28.8857 117.962 28.6988C117.603 28.5119 117.326 28.246 117.132 27.901C116.938 27.556 116.841 27.1499 116.841 26.6828V25.1519C116.841 24.6775 116.938 24.2714 117.132 23.9336C117.326 23.5886 117.603 23.3227 117.962 23.1358C118.322 22.9489 118.746 22.8555 119.234 22.8555C119.723 22.8555 120.147 22.9489 120.507 23.1358C120.866 23.3227 121.143 23.5886 121.337 23.9336C121.531 24.2714 121.628 24.6775 121.628 25.1519V26.6828C121.628 27.1499 121.531 27.556 121.337 27.901C121.143 28.246 120.866 28.5119 120.507 28.6988C120.147 28.8857 119.723 28.9791 119.234 28.9791ZM119.234 27.9549C119.63 27.9549 119.935 27.8471 120.151 27.6315C120.366 27.4087 120.474 27.0924 120.474 26.6828V25.1519C120.474 24.735 120.366 24.4188 120.151 24.2031C119.935 23.9875 119.63 23.8797 119.234 23.8797C118.846 23.8797 118.541 23.9875 118.318 24.2031C118.102 24.4188 117.995 24.735 117.995 25.1519V26.6828C117.995 27.0924 118.102 27.4087 118.318 27.6315C118.541 27.8471 118.846 27.9549 119.234 27.9549Z" fill="#EDEDED"/>
<path d="M123.823 28.8821V22.9525H128.157V24.0199H124.976V28.8821H123.823Z" fill="#EDEDED"/>
<path d="M129.834 30.8227V22.9525H130.988V24.0845H131.236L130.988 24.3541C130.988 23.8869 131.132 23.5203 131.419 23.2544C131.714 22.9813 132.106 22.8447 132.594 22.8447C133.191 22.8447 133.665 23.046 134.017 23.4485C134.377 23.8438 134.556 24.3864 134.556 25.0764V26.7474C134.556 27.2074 134.474 27.6063 134.309 27.9441C134.15 28.2747 133.924 28.5335 133.629 28.7204C133.342 28.9 132.997 28.9899 132.594 28.9899C132.113 28.9899 131.725 28.8569 131.43 28.591C131.135 28.3179 130.988 27.9477 130.988 27.4806L131.236 27.7501H130.966L130.999 29.13V30.8227H129.834ZM132.195 27.9765C132.576 27.9765 132.871 27.8687 133.079 27.653C133.295 27.4302 133.403 27.1104 133.403 26.6935V25.1411C133.403 24.7242 133.295 24.408 133.079 24.1924C132.871 23.9695 132.576 23.8581 132.195 23.8581C131.829 23.8581 131.538 23.9731 131.322 24.2031C131.107 24.4259 130.999 24.7386 130.999 25.1411V26.6935C130.999 27.096 131.107 27.4123 131.322 27.6423C131.538 27.8651 131.829 27.9765 132.195 27.9765Z" fill="#EDEDED"/>
<path d="M138.035 28.9899C137.416 28.9899 136.928 28.8318 136.568 28.5155C136.216 28.1921 136.04 27.7537 136.04 27.2002C136.04 26.6396 136.227 26.2012 136.601 25.885C136.982 25.5615 137.503 25.3998 138.164 25.3998H139.813V24.85C139.813 24.5266 139.713 24.275 139.512 24.0953C139.31 23.9156 139.026 23.8258 138.66 23.8258C138.336 23.8258 138.067 23.8977 137.851 24.0414C137.636 24.178 137.51 24.3613 137.474 24.5912H136.331C136.396 24.0594 136.64 23.6353 137.064 23.3191C137.495 23.0029 138.038 22.8447 138.692 22.8447C139.397 22.8447 139.954 23.0244 140.363 23.3838C140.773 23.736 140.978 24.2175 140.978 24.8284V28.8821H139.846V27.7932H139.652L139.846 27.5776C139.846 28.0088 139.68 28.3538 139.35 28.6126C139.019 28.8641 138.581 28.9899 138.035 28.9899ZM138.379 28.0951C138.796 28.0951 139.138 27.9909 139.404 27.7824C139.677 27.5668 139.813 27.2937 139.813 26.9631V26.1868H138.185C137.884 26.1868 137.643 26.2695 137.463 26.4348C137.291 26.6001 137.204 26.8265 137.204 27.114C137.204 27.4159 137.309 27.6566 137.517 27.8363C137.725 28.0088 138.013 28.0951 138.379 28.0951Z" fill="#EDEDED"/>
<path d="M142.569 28.8821V22.9525H144.035L144.79 25.2058C144.869 25.4429 144.937 25.6729 144.995 25.8957C145.052 26.1114 145.092 26.2767 145.113 26.3917C145.142 26.2767 145.182 26.1114 145.232 25.8957C145.289 25.6729 145.354 25.4429 145.426 25.2058L146.148 22.9525H147.615V28.8821H146.515V27.9226C146.515 27.6207 146.519 27.2937 146.526 26.9415C146.54 26.5821 146.551 26.2192 146.558 25.8526C146.572 25.4861 146.587 25.1375 146.601 24.8069C146.616 24.4691 146.63 24.1708 146.644 23.912L145.663 27.1356H144.542L143.539 23.9336C143.561 24.2499 143.579 24.638 143.593 25.098C143.615 25.5579 143.633 26.0359 143.647 26.5318C143.662 27.0206 143.669 27.4841 143.669 27.9226V28.8821H142.569Z" fill="#EDEDED"/>
<path d="M149.033 28.8821V22.9525H150.5L151.254 25.2058C151.333 25.4429 151.402 25.6729 151.459 25.8957C151.517 26.1114 151.556 26.2767 151.578 26.3917C151.607 26.2767 151.646 26.1114 151.696 25.8957C151.754 25.6729 151.819 25.4429 151.89 25.2058L152.613 22.9525H154.079V28.8821H152.979V27.9226C152.979 27.6207 152.983 27.2937 152.99 26.9415C153.004 26.5821 153.015 26.2192 153.022 25.8526C153.037 25.4861 153.051 25.1375 153.066 24.8069C153.08 24.4691 153.094 24.1708 153.109 23.912L152.128 27.1356H151.006L150.004 23.9336C150.025 24.2499 150.043 24.638 150.058 25.098C150.079 25.5579 150.097 26.0359 150.112 26.5318C150.126 27.0206 150.133 27.4841 150.133 27.9226V28.8821H149.033Z" fill="#EDEDED"/>
<path d="M155.713 28.8821V22.9525H156.781V26.0251C156.781 26.2264 156.774 26.4492 156.759 26.6935C156.745 26.9307 156.727 27.1643 156.705 27.3943C156.684 27.6171 156.662 27.8112 156.641 27.9765L158.872 22.9525H160.328V28.8821H159.26V25.8095C159.26 25.6083 159.268 25.3926 159.282 25.1626C159.296 24.9255 159.314 24.6955 159.336 24.4727C159.357 24.2499 159.379 24.0666 159.401 23.9228L157.169 28.8821H155.713Z" fill="#EDEDED"/>
<path d="M162.156 30.8227V22.9525H163.31V24.0845H163.558L163.31 24.3541C163.31 23.8869 163.454 23.5203 163.741 23.2544C164.036 22.9813 164.427 22.8447 164.916 22.8447C165.513 22.8447 165.987 23.046 166.339 23.4485C166.699 23.8438 166.878 24.3864 166.878 25.0764V26.7474C166.878 27.2074 166.796 27.6063 166.63 27.9441C166.472 28.2747 166.246 28.5335 165.951 28.7204C165.664 28.9 165.319 28.9899 164.916 28.9899C164.435 28.9899 164.047 28.8569 163.752 28.591C163.457 28.3179 163.31 27.9477 163.31 27.4806L163.558 27.7501H163.288L163.321 29.13V30.8227H162.156ZM164.517 27.9765C164.898 27.9765 165.193 27.8687 165.401 27.653C165.617 27.4302 165.725 27.1104 165.725 26.6935V25.1411C165.725 24.7242 165.617 24.408 165.401 24.1924C165.193 23.9695 164.898 23.8581 164.517 23.8581C164.151 23.8581 163.86 23.9731 163.644 24.2031C163.428 24.4259 163.321 24.7386 163.321 25.1411V26.6935C163.321 27.096 163.428 27.4123 163.644 27.6423C163.86 27.8651 164.151 27.9765 164.517 27.9765Z" fill="#EDEDED"/>
<path d="M170.949 28.9791C170.461 28.9791 170.037 28.8857 169.677 28.6988C169.318 28.5119 169.041 28.246 168.847 27.901C168.653 27.556 168.556 27.1499 168.556 26.6828V25.1519C168.556 24.6775 168.653 24.2714 168.847 23.9336C169.041 23.5886 169.318 23.3227 169.677 23.1358C170.037 22.9489 170.461 22.8555 170.949 22.8555C171.438 22.8555 171.862 22.9489 172.221 23.1358C172.581 23.3227 172.858 23.5886 173.052 23.9336C173.246 24.2714 173.343 24.6775 173.343 25.1519V26.6828C173.343 27.1499 173.246 27.556 173.052 27.901C172.858 28.246 172.581 28.5119 172.221 28.6988C171.862 28.8857 171.438 28.9791 170.949 28.9791ZM170.949 27.9549C171.345 27.9549 171.65 27.8471 171.866 27.6315C172.081 27.4087 172.189 27.0924 172.189 26.6828V25.1519C172.189 24.735 172.081 24.4188 171.866 24.2031C171.65 23.9875 171.345 23.8797 170.949 23.8797C170.561 23.8797 170.256 23.9875 170.033 24.2031C169.817 24.4188 169.71 24.735 169.71 25.1519V26.6828C169.71 27.0924 169.817 27.4087 170.033 27.6315C170.256 27.8471 170.561 27.9549 170.949 27.9549Z" fill="#EDEDED"/>
<path d="M175.096 28.8821V22.9525H177.705C178.352 22.9525 178.858 23.0927 179.225 23.373C179.591 23.6533 179.775 24.0414 179.775 24.5373C179.775 24.947 179.627 25.274 179.333 25.5184C179.038 25.7628 178.65 25.885 178.168 25.885V25.7879C178.693 25.7879 179.113 25.9173 179.43 26.1761C179.753 26.4276 179.915 26.7654 179.915 27.1895C179.915 27.7213 179.724 28.1382 179.343 28.4401C178.963 28.7347 178.438 28.8821 177.769 28.8821H175.096ZM176.239 27.9441H177.748C178.064 27.9441 178.312 27.8723 178.492 27.7285C178.679 27.5848 178.772 27.3871 178.772 27.1356C178.772 26.8768 178.679 26.6756 178.492 26.5318C178.312 26.3809 178.064 26.3054 177.748 26.3054H176.239V27.9441ZM176.239 25.4429H177.705C177.992 25.4429 178.219 25.3747 178.384 25.2381C178.549 25.1016 178.632 24.9111 178.632 24.6667C178.632 24.4295 178.549 24.2427 178.384 24.1061C178.219 23.9624 177.992 23.8905 177.705 23.8905H176.239V25.4429Z" fill="#EDEDED"/>
<path d="M183.285 28.9899C182.667 28.9899 182.178 28.8318 181.819 28.5155C181.467 28.1921 181.291 27.7537 181.291 27.2002C181.291 26.6396 181.477 26.2012 181.851 25.885C182.232 25.5615 182.753 25.3998 183.414 25.3998H185.064V24.85C185.064 24.5266 184.963 24.275 184.762 24.0953C184.561 23.9156 184.277 23.8258 183.91 23.8258C183.587 23.8258 183.317 23.8977 183.102 24.0414C182.886 24.178 182.76 24.3613 182.724 24.5912H181.582C181.646 24.0594 181.891 23.6353 182.315 23.3191C182.746 23.0029 183.289 22.8447 183.943 22.8447C184.647 22.8447 185.204 23.0244 185.614 23.3838C186.023 23.736 186.228 24.2175 186.228 24.8284V28.8821H185.096V27.7932H184.902L185.096 27.5776C185.096 28.0088 184.931 28.3538 184.6 28.6126C184.27 28.8641 183.831 28.9899 183.285 28.9899ZM183.63 28.0951C184.047 28.0951 184.388 27.9909 184.654 27.7824C184.927 27.5668 185.064 27.2937 185.064 26.9631V26.1868H183.436C183.134 26.1868 182.893 26.2695 182.714 26.4348C182.541 26.6001 182.455 26.8265 182.455 27.114C182.455 27.4159 182.559 27.6566 182.768 27.8363C182.976 28.0088 183.264 28.0951 183.63 28.0951Z" fill="#EDEDED"/>
<path d="M188.035 28.8821V22.9525H189.2V25.3351H191.485V22.9525H192.65V28.8821H191.485V26.4025H189.2V28.8821H188.035Z" fill="#EDEDED"/>
<path d="M194.5 28.8821V22.9525H195.567V26.0251C195.567 26.2264 195.56 26.4492 195.545 26.6935C195.531 26.9307 195.513 27.1643 195.492 27.3943C195.47 27.6171 195.448 27.8112 195.427 27.9765L197.658 22.9525H199.114V28.8821H198.047V25.8095C198.047 25.6083 198.054 25.3926 198.068 25.1626C198.083 24.9255 198.101 24.6955 198.122 24.4727C198.144 24.2499 198.165 24.0666 198.187 23.9228L195.955 28.8821H194.5Z" fill="#EDEDED"/>
<path d="M200.651 28.8821L202.107 26.6612C201.676 26.539 201.338 26.3234 201.093 26.0143C200.856 25.7053 200.738 25.3279 200.738 24.8823C200.738 24.2786 200.939 23.8078 201.341 23.47C201.744 23.125 202.294 22.9525 202.991 22.9525H205.578V28.8821H204.425V26.769H203.293L201.988 28.8821H200.651ZM203.023 25.7987H204.425V23.9444H203.023C202.678 23.9444 202.405 24.027 202.204 24.1924C202.01 24.3505 201.913 24.5769 201.913 24.8716C201.913 25.1662 202.01 25.3962 202.204 25.5615C202.405 25.7197 202.678 25.7987 203.023 25.7987Z" fill="#EDEDED"/>
<path d="M213.871 28.8821V21.012H216.448C216.958 21.012 217.4 21.109 217.774 21.3031C218.155 21.4971 218.446 21.7738 218.647 22.1332C218.856 22.4854 218.96 22.9022 218.96 23.3838C218.96 23.8581 218.856 24.275 218.647 24.6344C218.439 24.9937 218.148 25.2705 217.774 25.4645C217.4 25.6586 216.958 25.7556 216.448 25.7556H215.036V28.8821H213.871ZM215.036 24.7098H216.448C216.85 24.7098 217.17 24.5912 217.407 24.3541C217.652 24.1097 217.774 23.7863 217.774 23.3838C217.774 22.9741 217.652 22.6507 217.407 22.4135C217.17 22.1763 216.85 22.0577 216.448 22.0577H215.036V24.7098Z" fill="#EDEDED"/>
<path d="M222.664 28.9791C222.176 28.9791 221.751 28.8857 221.392 28.6988C221.033 28.5119 220.756 28.246 220.562 27.901C220.368 27.556 220.271 27.1499 220.271 26.6828V25.1519C220.271 24.6775 220.368 24.2714 220.562 23.9336C220.756 23.5886 221.033 23.3227 221.392 23.1358C221.751 22.9489 222.176 22.8555 222.664 22.8555C223.153 22.8555 223.577 22.9489 223.936 23.1358C224.296 23.3227 224.573 23.5886 224.767 23.9336C224.961 24.2714 225.058 24.6775 225.058 25.1519V26.6828C225.058 27.1499 224.961 27.556 224.767 27.901C224.573 28.246 224.296 28.5119 223.936 28.6988C223.577 28.8857 223.153 28.9791 222.664 28.9791ZM222.664 27.9549C223.06 27.9549 223.365 27.8471 223.581 27.6315C223.796 27.4087 223.904 27.0924 223.904 26.6828V25.1519C223.904 24.735 223.796 24.4188 223.581 24.2031C223.365 23.9875 223.06 23.8797 222.664 23.8797C222.276 23.8797 221.971 23.9875 221.748 24.2031C221.532 24.4188 221.424 24.735 221.424 25.1519V26.6828C221.424 27.0924 221.532 27.4087 221.748 27.6315C221.971 27.8471 222.276 27.9549 222.664 27.9549Z" fill="#EDEDED"/>
<path d="M229.161 28.9899C228.672 28.9899 228.241 28.9 227.867 28.7204C227.501 28.5335 227.217 28.2676 227.016 27.9226C226.822 27.5704 226.724 27.1607 226.724 26.6935V25.1411C226.724 24.6667 226.822 24.257 227.016 23.912C227.217 23.5671 227.501 23.3047 227.867 23.125C228.241 22.9382 228.672 22.8447 229.161 22.8447C229.873 22.8447 230.444 23.0316 230.875 23.4053C231.306 23.7791 231.533 24.2894 231.554 24.9362H230.39C230.368 24.5984 230.25 24.3361 230.034 24.1492C229.819 23.9624 229.528 23.8689 229.161 23.8689C228.766 23.8689 228.453 23.9803 228.223 24.2031C227.993 24.4188 227.878 24.7278 227.878 25.1303V26.6935C227.878 27.096 227.993 27.4087 228.223 27.6315C228.453 27.8543 228.766 27.9657 229.161 27.9657C229.528 27.9657 229.819 27.8723 230.034 27.6854C230.25 27.4985 230.368 27.2362 230.39 26.8984H231.554C231.533 27.5452 231.306 28.0555 230.875 28.4293C230.444 28.803 229.873 28.9899 229.161 28.9899Z" fill="#EDEDED"/>
<path d="M235.625 28.9899C235.137 28.9899 234.705 28.9 234.332 28.7204C233.965 28.5335 233.681 28.2676 233.48 27.9226C233.286 27.5704 233.189 27.1607 233.189 26.6935V25.1411C233.189 24.6667 233.286 24.257 233.48 23.912C233.681 23.5671 233.965 23.3047 234.332 23.125C234.705 22.9382 235.137 22.8447 235.625 22.8447C236.337 22.8447 236.908 23.0316 237.34 23.4053C237.771 23.7791 237.997 24.2894 238.019 24.9362H236.854C236.833 24.5984 236.714 24.3361 236.499 24.1492C236.283 23.9624 235.992 23.8689 235.625 23.8689C235.23 23.8689 234.917 23.9803 234.687 24.2031C234.457 24.4188 234.342 24.7278 234.342 25.1303V26.6935C234.342 27.096 234.457 27.4087 234.687 27.6315C234.917 27.8543 235.23 27.9657 235.625 27.9657C235.992 27.9657 236.283 27.8723 236.499 27.6854C236.714 27.4985 236.833 27.2362 236.854 26.8984H238.019C237.997 27.5452 237.771 28.0555 237.34 28.4293C236.908 28.803 236.337 28.9899 235.625 28.9899Z" fill="#EDEDED"/>
<path d="M239.75 28.8821V22.9525H240.818V26.0251C240.818 26.2264 240.81 26.4492 240.796 26.6935C240.782 26.9307 240.764 27.1643 240.742 27.3943C240.721 27.6171 240.699 27.8112 240.677 27.9765L242.909 22.9525H244.365V28.8821H243.297V25.8095C243.297 25.6083 243.304 25.3926 243.319 25.1626C243.333 24.9255 243.351 24.6955 243.373 24.4727C243.394 24.2499 243.416 24.0666 243.437 23.9228L241.206 28.8821H239.75Z" fill="#EDEDED"/>
<path d="M246.215 28.8821V22.9525H247.282V26.0251C247.282 26.2264 247.275 26.4492 247.26 26.6935C247.246 26.9307 247.228 27.1643 247.206 27.3943C247.185 27.6171 247.163 27.8112 247.142 27.9765L249.373 22.9525H250.829V28.8821H249.762V25.8095C249.762 25.6083 249.769 25.3926 249.783 25.1626C249.798 24.9255 249.815 24.6955 249.837 24.4727C249.859 24.2499 249.88 24.0666 249.902 23.9228L247.67 28.8821H246.215Z" fill="#EDEDED"/>
</svg>
